<svg xmlns="http://www.w3.org/2000/svg" viewBox="0 0 704.94 250.72" width="704.94" height="250.72" role="img" aria-label="flywheel-evidence-task lockup"><title>flywheel-evidence-task lockup</title><defs></defs><g transform="translate(272.47 0) scale(0.31)"><desc>A ring drawn around a bright core, with the document element inside the ring.</desc><defs><radialGradient id="mk-flywheel-evidence-task-fl0-halo" r="22%"><stop offset="0" stop-color="#c4621d" stop-opacity="0.18"/><stop offset="0.35" stop-color="#c4621d" stop-opacity="0.05"/><stop offset="1" stop-color="#c4621d" stop-opacity="0"/></radialGradient><radialGradient id="mk-flywheel-evidence-task-fl0-core"><stop offset="0" stop-color="#fffdf7"/><stop offset="0.45" stop-color="#fffdf7" stop-opacity="0.96"/><stop offset="0.72" stop-color="#e7a653" stop-opacity="0.3"/><stop offset="1" stop-color="#c4621d" stop-opacity="0"/></radialGradient></defs><circle cx="256" cy="256" r="196" fill="none" stroke="#1a1712" stroke-width="18" opacity="1"/><line x1="336" y1="136" x2="336" y2="376" stroke="#1a1712" stroke-width="10.8" stroke-opacity="1" stroke-linecap="round"/><line x1="286" y1="136" x2="286" y2="336" stroke="#1a1712" stroke-width="10.8" stroke-opacity="1" stroke-linecap="round"/><line x1="236" y1="136" x2="236" y2="376" stroke="#1a1712" stroke-width="10.8" stroke-opacity="1" stroke-linecap="round"/><circle cx="256" cy="256" r="34" fill="#1a1712" opacity="1"/></g><path fill="#1a1712" d="M26.99 230.56V203.21H20.67V197.43H27.06V193.67Q27.06 189.57 28.4 187.25Q29.74 184.93 32 184.02Q34.25 183.12 37 183.12Q38.95 183.12 40.46 183.49Q41.97 183.86 43.32 184.53L40.9 190.17Q40.23 189.77 39.45 189.53Q38.68 189.3 37.81 189.3Q35.99 189.3 35.22 190.48Q34.45 191.65 34.45 193.67V197.43H41.71V203.21H34.45V230.56ZM52.46 231.16Q49.23 231.16 47.08 229.18Q44.93 227.2 44.93 222.83V183.72H52.39V221.35Q52.39 222.9 53.1 223.6Q53.8 224.31 54.94 224.31Q55.55 224.31 56.19 224.18Q56.83 224.04 57.5 223.84V230.16Q56.22 230.69 54.88 230.93Q53.53 231.16 52.46 231.16ZM64.69 244.2 71.27 228.34 58.64 197.43H66.84L75.24 220.88L83.77 197.43H91.84L72.75 244.2ZM102.92 230.56 92.84 197.43H100.77L106.69 219.14L113.41 197.43H119.79L126.51 219L132.49 197.43H140.42L130.28 230.56H123.56L116.63 207.98L109.71 230.56ZM144.59 230.56V183.72H152.05V204.76L150.7 205.09Q151.58 202.2 153.29 200.39Q155 198.57 157.22 197.7Q159.44 196.83 161.93 196.83Q167.5 196.83 170.63 200.02Q173.75 203.21 173.75 209.12V230.56H166.29V211.88Q166.29 207.44 164.68 205.36Q163.07 203.28 159.71 203.28Q155.95 203.28 154 205.96Q152.05 208.65 152.05 214.43V230.56ZM194.99 231.16Q190.82 231.16 187.76 229.82Q184.71 228.48 182.76 226.06Q180.81 223.64 179.87 220.58Q178.93 217.52 178.93 214.23Q178.93 210.94 179.84 207.81Q180.74 204.69 182.62 202.2Q184.51 199.72 187.46 198.27Q190.42 196.83 194.45 196.83Q198.28 196.83 201.14 198.14Q203.99 199.45 205.88 201.76Q207.76 204.08 208.66 207.04Q209.57 210 209.57 213.36Q209.57 213.83 209.54 214.7Q209.5 215.57 209.37 216.45H186.39Q186.66 220.41 189.08 222.5Q191.49 224.58 195.26 224.58Q198.01 224.58 200.3 223.71Q202.58 222.83 204.46 220.95L208.56 225.92Q206.48 227.8 204.4 228.95Q202.31 230.09 200.06 230.63Q197.81 231.16 194.99 231.16ZM202.25 212.68Q202.38 212.15 202.41 211.61Q202.45 211.07 202.45 210.53Q202.45 209.06 201.94 207.71Q201.44 206.37 200.43 205.33Q199.42 204.28 197.95 203.65Q196.47 203.01 194.59 203.01Q191.96 203.01 190.18 204.15Q188.4 205.29 187.43 207.07Q186.45 208.85 186.25 210.94H204.67ZM229.66 231.16Q225.5 231.16 222.44 229.82Q219.38 228.48 217.43 226.06Q215.48 223.64 214.54 220.58Q213.6 217.52 213.6 214.23Q213.6 210.94 214.51 207.81Q215.42 204.69 217.3 202.2Q219.18 199.72 222.14 198.27Q225.09 196.83 229.13 196.83Q232.96 196.83 235.81 198.14Q238.67 199.45 240.55 201.76Q242.43 204.08 243.34 207.04Q244.25 210 244.25 213.36Q244.25 213.83 244.21 214.7Q244.18 215.57 244.04 216.45H221.06Q221.33 220.41 223.75 222.5Q226.17 224.58 229.93 224.58Q232.69 224.58 234.97 223.71Q237.26 222.83 239.14 220.95L243.24 225.92Q241.16 227.8 239.07 228.95Q236.99 230.09 234.74 230.63Q232.49 231.16 229.66 231.16ZM236.92 212.68Q237.06 212.15 237.09 211.61Q237.12 211.07 237.12 210.53Q237.12 209.06 236.62 207.71Q236.12 206.37 235.11 205.33Q234.1 204.28 232.62 203.65Q231.14 203.01 229.26 203.01Q226.64 203.01 224.86 204.15Q223.08 205.29 222.1 207.07Q221.13 208.85 220.93 210.94H239.34ZM257.15 231.16Q253.92 231.16 251.77 229.18Q249.62 227.2 249.62 222.83V183.72H257.08V221.35Q257.08 222.9 257.79 223.6Q258.49 224.31 259.64 224.31Q260.24 224.31 260.88 224.18Q261.52 224.04 262.19 223.84V230.16Q260.91 230.69 259.57 230.93Q258.22 231.16 257.15 231.16ZM264.81 213.29V207.78H281.48V213.29ZM301.3 231.16Q297.13 231.16 294.08 229.82Q291.02 228.48 289.07 226.06Q287.12 223.64 286.18 220.58Q285.24 217.52 285.24 214.23Q285.24 210.94 286.15 207.81Q287.05 204.69 288.93 202.2Q290.82 199.72 293.77 198.27Q296.73 196.83 300.76 196.83Q304.59 196.83 307.45 198.14Q310.3 199.45 312.19 201.76Q314.07 204.08 314.97 207.04Q315.88 210 315.88 213.36Q315.88 213.83 315.85 214.7Q315.81 215.57 315.68 216.45H292.7Q292.97 220.41 295.39 222.5Q297.8 224.58 301.57 224.58Q304.32 224.58 306.61 223.71Q308.89 222.83 310.77 220.95L314.87 225.92Q312.79 227.8 310.71 228.95Q308.62 230.09 306.37 230.63Q304.12 231.16 301.3 231.16ZM308.56 212.68Q308.69 212.15 308.72 211.61Q308.76 211.07 308.76 210.53Q308.76 209.06 308.25 207.71Q307.75 206.37 306.74 205.33Q305.73 204.28 304.26 203.65Q302.78 203.01 300.9 203.01Q298.28 203.01 296.49 204.15Q294.71 205.29 293.74 207.07Q292.76 208.85 292.56 210.94H310.98ZM330.93 230.56 317.43 197.43H325.63L334.03 220.88L342.56 197.43H350.62L337.12 230.56ZM354.45 230.56V197.43H361.91V230.56ZM354.12 191.99V183.72H362.25V191.99ZM381.8 231.16Q377.37 231.16 374.11 228.91Q370.85 226.66 369.1 222.76Q367.36 218.87 367.36 213.96Q367.36 208.59 369.27 204.76Q371.19 200.92 374.48 198.88Q377.77 196.83 381.8 196.83Q384.63 196.83 387.01 197.97Q389.4 199.11 391.04 201.29Q392.69 203.48 393.36 206.64L391.62 206.7V183.72H399.08V230.56H391.62V221.35L393.63 220.88Q392.76 224.51 390.98 226.76Q389.2 229.01 386.84 230.09Q384.49 231.16 381.8 231.16ZM383.62 224.31Q386.24 224.31 388.19 223.03Q390.14 221.76 391.21 219.4Q392.29 217.05 392.29 213.96Q392.29 210.87 391.21 208.55Q390.14 206.23 388.19 204.92Q386.24 203.61 383.62 203.61Q381 203.61 379.02 204.89Q377.03 206.17 375.92 208.52Q374.82 210.87 374.82 213.96Q374.82 217.05 375.92 219.4Q377.03 221.76 379.02 223.03Q381 224.31 383.62 224.31ZM420.65 231.16Q416.48 231.16 413.42 229.82Q410.36 228.48 408.42 226.06Q406.47 223.64 405.53 220.58Q404.59 217.52 404.59 214.23Q404.59 210.94 405.49 207.81Q406.4 204.69 408.28 202.2Q410.16 199.72 413.12 198.27Q416.08 196.83 420.11 196.83Q423.94 196.83 426.8 198.14Q429.65 199.45 431.53 201.76Q433.41 204.08 434.32 207.04Q435.23 210 435.23 213.36Q435.23 213.83 435.2 214.7Q435.16 215.57 435.03 216.45H412.04Q412.31 220.41 414.73 222.5Q417.15 224.58 420.92 224.58Q423.67 224.58 425.96 223.71Q428.24 222.83 430.12 220.95L434.22 225.92Q432.14 227.8 430.05 228.95Q427.97 230.09 425.72 230.63Q423.47 231.16 420.65 231.16ZM427.9 212.68Q428.04 212.15 428.07 211.61Q428.11 211.07 428.11 210.53Q428.11 209.06 427.6 207.71Q427.1 206.37 426.09 205.33Q425.08 204.28 423.6 203.65Q422.12 203.01 420.24 203.01Q417.62 203.01 415.84 204.15Q414.06 205.29 413.09 207.07Q412.11 208.85 411.91 210.94H430.32ZM440.81 230.56V197.43H448.27V204.76L446.92 205.09Q447.8 202.2 449.48 200.39Q451.16 198.57 453.41 197.7Q455.66 196.83 458.14 196.83Q463.72 196.83 466.85 200.02Q469.97 203.21 469.97 209.12V230.56H462.51V211.88Q462.51 207.44 460.9 205.36Q459.29 203.28 455.93 203.28Q453.44 203.28 451.73 204.45Q450.01 205.63 449.14 208.12Q448.27 210.6 448.27 214.43V230.56ZM491 231.16Q487.11 231.16 484.12 229.79Q481.13 228.41 479.14 225.96Q477.16 223.5 476.15 220.41Q475.15 217.32 475.15 213.96Q475.15 210.6 476.15 207.51Q477.16 204.42 479.14 202Q481.13 199.58 484.12 198.2Q487.11 196.83 491 196.83Q495.91 196.83 499.57 199.18Q503.24 201.53 504.98 206.44L498.4 208.99Q497.59 206.44 495.78 204.86Q493.96 203.28 491 203.28Q488.05 203.28 486.2 204.82Q484.35 206.37 483.48 208.79Q482.6 211.21 482.6 213.96Q482.6 216.72 483.48 219.17Q484.35 221.62 486.2 223.13Q488.05 224.65 491 224.65Q493.96 224.65 495.78 223.1Q497.59 221.56 498.4 219L504.98 221.56Q503.24 226.39 499.57 228.78Q495.91 231.16 491 231.16ZM524.54 231.16Q520.37 231.16 517.31 229.82Q514.26 228.48 512.31 226.06Q510.36 223.64 509.42 220.58Q508.48 217.52 508.48 214.23Q508.48 210.94 509.38 207.81Q510.29 204.69 512.17 202.2Q514.05 199.72 517.01 198.27Q519.97 196.83 524 196.83Q527.83 196.83 530.69 198.14Q533.54 199.45 535.42 201.76Q537.31 204.08 538.21 207.04Q539.12 210 539.12 213.36Q539.12 213.83 539.09 214.7Q539.05 215.57 538.92 216.45H515.94Q516.2 220.41 518.62 222.5Q521.04 224.58 524.81 224.58Q527.56 224.58 529.85 223.71Q532.13 222.83 534.01 220.95L538.11 225.92Q536.03 227.8 533.95 228.95Q531.86 230.09 529.61 230.63Q527.36 231.16 524.54 231.16ZM531.8 212.68Q531.93 212.15 531.96 211.61Q532 211.07 532 210.53Q532 209.06 531.49 207.71Q530.99 206.37 529.98 205.33Q528.97 204.28 527.49 203.65Q526.02 203.01 524.13 203.01Q521.51 203.01 519.73 204.15Q517.95 205.29 516.98 207.07Q516 208.85 515.8 210.94H534.21ZM543.02 213.29V207.78H559.68V213.29ZM577.02 231.16Q574.53 231.16 572.35 230.19Q570.17 229.22 568.89 227.03Q567.61 224.85 567.61 221.29V189.37L575.14 185.2V219.2Q575.14 222.03 575.98 223.54Q576.82 225.05 579.04 225.05Q579.71 225.05 580.62 224.88Q581.52 224.71 582.53 224.44V230.22Q581.19 230.69 579.81 230.93Q578.43 231.16 577.02 231.16ZM561.3 203.21V197.43H582.53V203.21ZM608.87 230.56 608.34 224.98V209.66Q608.34 206.44 606.39 204.79Q604.44 203.14 600.94 203.14Q598.26 203.14 595.67 204.18Q593.08 205.23 590.93 207.38L586.76 202.47Q589.99 199.45 593.62 198.14Q597.25 196.83 601.55 196.83Q608.27 196.83 612 200.22Q615.73 203.61 615.73 209.66V230.56ZM598.59 231.16Q594.9 231.16 592.04 229.82Q589.18 228.48 587.6 226.06Q586.03 223.64 586.03 220.41Q586.03 217.66 587.2 215.64Q588.38 213.63 590.26 212.48Q591.87 211.48 594.02 211.04Q596.17 210.6 598.52 210.6H608.94V216.18H599.6Q598.39 216.18 597.18 216.41Q595.97 216.65 595.03 217.25Q594.36 217.79 593.92 218.6Q593.48 219.4 593.48 220.48Q593.48 222.63 595.13 223.87Q596.78 225.12 599.53 225.12Q601.95 225.12 603.93 224.04Q605.92 222.97 607.13 221.08Q608.34 219.2 608.34 216.85L610.62 220.55Q609.81 224.04 608.07 226.43Q606.32 228.81 603.9 229.99Q601.48 231.16 598.59 231.16ZM633.67 231.16Q630.11 231.16 627.35 230.12Q624.6 229.08 622.72 227.47Q620.84 225.86 619.63 224.24L624.73 219.81Q626.01 221.89 628.26 223.5Q630.51 225.12 633.74 225.12Q636.43 225.12 638 223.97Q639.58 222.83 639.58 221.15Q639.58 219.67 638.58 218.83Q637.57 217.99 635.96 217.39Q634.34 216.78 632.39 216.31Q630.51 215.84 628.56 215.14Q626.61 214.43 624.97 213.36Q623.32 212.28 622.31 210.6Q621.31 208.92 621.31 206.44Q621.31 202.07 624.67 199.45Q628.03 196.83 633.47 196.83Q637.37 196.83 640.59 198.37Q643.82 199.92 645.63 203.01L641 206.57Q639.65 204.55 637.64 203.55Q635.62 202.54 633.27 202.54Q631.12 202.54 629.67 203.41Q628.23 204.28 628.23 205.7Q628.23 206.77 628.9 207.44Q629.57 208.12 630.98 208.65Q632.39 209.19 634.54 209.73Q636.56 210.2 638.71 210.87Q640.86 211.54 642.71 212.65Q644.56 213.76 645.73 215.61Q646.91 217.46 646.91 220.35Q646.91 223.57 645.26 226.02Q643.62 228.48 640.63 229.82Q637.64 231.16 633.67 231.16ZM674.8 230.56 664.78 214.77 659.14 221.02V211.54L672.65 197.43H682.19L670.23 209.8L683.67 230.56ZM652.35 230.56V183.72H659.81V230.56Z"/></svg>
